<?xml version="1.0" encoding="utf-8"?>
<svg version="1.1" baseProfile="tiny"
	 xmlns="http://www.w3.org/2000/svg" xmlns:xlink="http://www.w3.org/1999/xlink" x="0px" y="0px" viewBox="0 0 272 79"
	 overflow="visible" xml:space="preserve">
<g>
	<ellipse fill="none" cx="130.3" cy="29.8" rx="5.8" ry="6.1"/>
	<path fill="none" d="M164,52.8c-1.2,0-2.1,0.8-2.1,2.2c0,1.4,1,2.2,2.1,2.2c1.2,0,2.1-0.8,2.1-2.2C166.1,53.7,165.2,52.8,164,52.8z
		"/>
	<path fill="none" d="M134.8,53h-1.5v4h1.5c1.2,0,2-0.6,2-2C136.7,53.7,136,53,134.8,53z"/>
	<path fill="none" d="M158.5,24.4h-4.2v10.9h4.2c3.1,0,5.3-1.6,5.3-5.4C163.8,25.9,161.6,24.4,158.5,24.4z"/>
	<polygon fill="none" points="223.4,25.2 222,25.2 219.4,32.9 225.9,32.9 	"/>
	<path fill="none" d="M102.5,52.8c-1.2,0-2.1,0.8-2.1,2.2c0,1.4,1,2.2,2.1,2.2c1.2,0,2.1-0.8,2.1-2.2
		C104.6,53.7,103.6,52.8,102.5,52.8z"/>
	<path fill="none" d="M178.8,53h-1.9v2.1h1.9c0.8,0,1.2-0.4,1.2-1C180,53.4,179.6,53,178.8,53z"/>
	<path fill="none" d="M44.7,31.9c0.2,0.4,0.5,0.7,0.9,0.7c0.1,0,0.2,0,0.3,0c0.3,0,0.7-0.1,1.2-0.5l0.1-0.1l-1.1-1.2
		c0,0-0.8-1-3-0.8l-0.4,0l0.3,0.2C43.1,30.4,44.3,31.2,44.7,31.9z"/>
	<path fill="none" d="M248.3,53h-1.9v2.1h1.9c0.8,0,1.2-0.4,1.2-1C249.5,53.4,249.1,53,248.3,53z"/>
	<polygon fill="none" points="209.9,53.3 208.9,56.1 211.3,56.1 210.3,53.3 	"/>
	<path fill="#01804C" d="M101.7,42.8c6,0,12-2.6,12.8-10.9h-7.7c-0.7,2.7-2.6,4-5.2,4c-3.2,0-5.7-2.4-5.7-6.1s2.5-6.1,5.7-6.1
		c2.6,0,4.5,1.2,5.2,3.9h7.7c-0.8-8.2-6.9-10.8-12.8-10.8c-8.2,0-13.7,5.2-13.7,13C88,37.6,93.5,42.8,101.7,42.8z"/>
	<path fill="#01804C" d="M130.3,16.9c-8.4,0-13.8,5.2-13.8,13c0,7.8,5.4,13,13.8,13s13.8-5.2,13.8-13
		C144.1,22,138.7,16.9,130.3,16.9z M130.3,35.9c-3.2,0-5.8-2.2-5.8-6.1c0-3.9,2.6-6.1,5.8-6.1c3.2,0,5.8,2.2,5.8,6.1
		C136.1,33.7,133.5,35.9,130.3,35.9z"/>
	<path fill="#01804C" d="M158.5,17.7h-12.2V42h12.2c9.9,0,13.4-5.2,13.4-12.2C171.9,22.8,168.4,17.7,158.5,17.7z M158.5,35.3h-4.2
		V24.4h4.2c3.1,0,5.3,1.5,5.3,5.4C163.8,33.7,161.6,35.3,158.5,35.3z"/>
	<rect x="174.2" y="17.7" fill="#01804C" width="8" height="24.3"/>
	<polygon fill="#01804C" points="213.1,17.7 204.8,17.7 198.9,34.5 198,34.5 192.2,17.7 183.9,17.7 192.9,42 204.1,42 	"/>
	<path fill="#01804C" d="M216.4,42l1.1-3.2h10.4L229,42h8.3l-9-24.3h-11.2l-9,24.3H216.4z M222,25.2h1.4l2.5,7.7h-6.5L222,25.2z"/>
	<polygon fill="#01804C" points="260,35.3 247,35.3 247,17.7 239,17.7 239,42 260,42 	"/>
	<path fill="#01804C" d="M92.1,52.8c0.9,0,1.6,0.4,1.9,1.4h2.3c-0.3-2.6-2.3-3.4-4.2-3.4c-2.7,0-4.5,1.7-4.5,4.3
		c0,2.6,1.8,4.3,4.5,4.3c1.9,0,3.8-0.8,4.2-3.5H94c-0.3,1-0.9,1.4-1.9,1.4C91,57.3,90,56.4,90,55C90,53.7,91,52.8,92.1,52.8z"/>
	<polygon fill="#01804C" points="99.7,50.5 101.7,50.5 102.2,50 102.7,50 103.2,50.5 105.2,50.5 103.9,48.9 101,48.9 	"/>
	<path fill="#01804C" d="M102.5,50.7c-2.7,0-4.5,1.7-4.5,4.3c0,2.6,1.8,4.3,4.5,4.3s4.5-1.7,4.5-4.3C107,52.5,105.2,50.7,102.5,50.7
		z M102.5,57.3c-1.2,0-2.1-0.8-2.1-2.2c0-1.4,1-2.2,2.1-2.2c1.2,0,2.1,0.8,2.1,2.2C104.6,56.4,103.6,57.3,102.5,57.3z"/>
	<polygon fill="#01804C" points="108.2,53 111.1,53 111.1,59.1 113.5,59.1 113.5,53 116.4,53 116.4,51 108.2,51 	"/>
	<polygon fill="#01804C" points="118.3,59.1 125.4,59.1 125.4,57.1 120.7,57.1 120.7,55.9 125.2,55.9 125.2,54.2 120.7,54.2
		120.7,53 125.4,53 125.4,51 118.3,51 	"/>
	<path fill="#01804C" d="M134.8,51h-3.9v8.1h3.9c3.2,0,4.4-1.7,4.4-4C139.2,52.7,138,51,134.8,51z M134.8,57.1h-1.5v-4h1.5
		c1.2,0,2,0.6,2,2C136.7,56.4,136,57.1,134.8,57.1z"/>
	<path fill="#01804C" d="M140.7,53h1c0,0.6,0,1.5-0.1,2.3h1.5c0.2-0.5,0.5-1.8,0.5-3.8V51h-2.9V53z"/>
	<rect x="145.4" y="51" fill="#01804C" width="2.4" height="8.1"/>
	<polygon fill="#01804C" points="154.2,56.8 154,56.8 151.9,51 149.4,51 152.4,59.1 155.8,59.1 158.8,51 156.3,51 	"/>
	<path fill="#01804C" d="M164,50.7c-2.7,0-4.5,1.7-4.5,4.3c0,2.6,1.8,4.3,4.5,4.3c2.7,0,4.5-1.7,4.5-4.3
		C168.5,52.5,166.7,50.7,164,50.7z M164,57.3c-1.2,0-2.1-0.8-2.1-2.2c0-1.4,1-2.2,2.1-2.2c1.2,0,2.1,0.8,2.1,2.2
		C166.1,56.4,165.2,57.3,164,57.3z"/>
	<rect x="170.2" y="51" fill="#01804C" width="2.4" height="8.1"/>
	<path fill="#01804C" d="M182.4,54c0-2-1.2-3-3.4-3h-4.5v8.1h2.4v-2.2h2.2l1.2,2.2h2.4l-1.5-2.7C181.9,55.9,182.4,55.1,182.4,54z
		 M178.8,55.1h-1.9V53h1.9c0.8,0,1.2,0.4,1.2,1C180,54.7,179.6,55.1,178.8,55.1z"/>
	<polygon fill="#01804C" points="184.3,59.1 191.4,59.1 191.4,57.1 186.7,57.1 186.7,55.9 191.3,55.9 191.3,54.2 186.7,54.2
		186.7,53 191.4,53 191.4,51 184.3,51 	"/>
	<polygon fill="#01804C" points="203.5,51 201.5,56.8 201.2,56.8 199.1,51 196.6,51 199.6,59.1 203,59.1 206,51 	"/>
	<path fill="#01804C" d="M208.4,51l-3,8.1h2.5l0.4-1.2h3.6l0.4,1.2h2.5l-3-8.1H208.4z M208.9,56.1l1-2.8h0.4l1,2.8H208.9z"/>
	<polygon fill="#01804C" points="218.8,51 216.4,51 216.4,59.1 223.2,59.1 223.2,57.1 218.8,57.1 	"/>
	<polygon fill="#01804C" points="225,59.1 232.1,59.1 232.1,57.1 227.4,57.1 227.4,55.9 232,55.9 232,54.2 227.4,54.2 227.4,53
		232.1,53 232.1,51 225,51 	"/>
	<path fill="#01804C" d="M239.7,55.6c0,1.1-0.5,1.8-1.7,1.8c-1.1,0-1.6-0.7-1.6-1.8V51H234v4.6c0,2.6,1.4,3.7,4.1,3.7
		c2.7,0,4.1-1.2,4.1-3.7V51h-2.4V55.6z"/>
	<path fill="#01804C" d="M251.9,54c0-2-1.2-3-3.4-3H244v8.1h2.4v-2.2h2.2l1.2,2.2h2.4l-1.5-2.7C251.4,55.9,251.9,55.1,251.9,54z
		 M248.3,55.1h-1.9V53h1.9c0.8,0,1.2,0.4,1.2,1C249.5,54.7,249.1,55.1,248.3,55.1z"/>
	<path fill="#01804C" d="M257.7,54.3l-0.9-0.2c-0.7-0.1-0.9-0.4-0.9-0.7c0-0.5,0.4-0.7,1.4-0.7c1.1,0,1.6,0.4,1.7,1h2.1
		c0-2.2-1.5-2.9-3.8-2.9c-2.5,0-3.8,1-3.8,2.5c0,2,1.7,2.2,3.3,2.5l1,0.2c0.8,0.1,1.1,0.4,1.1,0.8c0,0.5-0.5,0.8-1.6,0.8
		c-1.2,0-1.7-0.4-1.8-1h-2.2c0,2,1.3,2.9,3.9,2.9c2.7,0,4-0.9,4-2.6C261.3,54.6,259.2,54.5,257.7,54.3z"/>
	<path fill="#01804C" d="M70.1,18.4c0.1-0.1,0.3-0.2,0.4-0.3c0.2-0.1,0.5-0.3,0.7-0.4l2.6-1.6L71.7,14c-2.1-2-4.1-4.2-6.1-6.3
		c-2.2-2.4-4.3-4.6-6.5-6.7c-0.7-0.7-2-1-3.7-1H48v3.4h0V6h7.3c0.1,0,0.1,0,0.2,0c1.9,1.8,3.7,3.7,5.6,5.8c1.1,1.2,2.2,2.4,3.4,3.6
		c-1.6,1.7-3.1,3.7-3.7,6.3c-0.6,2.8,0.1,5.6,1.3,9c1.4,4,2.8,8.3,3.4,12.4c0.7,5-0.8,10.6-4.1,15.2c-3.4,4.6-8.2,7.8-13.2,8.7
		c-3.7,0.6-7.8,1.6-11.4,4.4c-3.6-2.8-7.7-3.8-11.4-4.4c-5-0.9-9.8-4-13.2-8.7C9,53.6,7.5,48.1,8.3,43c0.6-4.2,2-8.4,3.4-12.4
		c1.2-3.3,1.9-6.2,1.3-9c-0.5-2.6-2.1-4.6-3.7-6.3c1.2-1.2,2.3-2.4,3.4-3.6c1.9-2.1,3.7-4,5.6-5.8c0.1,0,0.1,0,0.2,0h7.3V4.7V0h-7.3
		h-0.1c-1.7,0-2.9,0.3-3.6,1c-2.2,2.1-4.3,4.3-6.5,6.7c-2,2.1-4,4.2-6.1,6.3L0,16.1l2.6,1.6c0.3,0.2,0.5,0.3,0.7,0.4
		c0.2,0.1,0.4,0.2,0.4,0.3c3.9,3.7,4.2,4.9,2.3,10.2c-1.5,4.3-3,8.9-3.7,13.6c-1,6.6,0.9,13.7,5.2,19.6c4.3,5.9,10.5,9.9,17,11.1
		c4.8,0.8,8.1,1.9,10.5,5c0.2,0.3,0.5,0.5,0.8,0.7c0.3,0.1,0.6,0.2,0.9,0.3l0.2,0l0.2,0c0.3,0,0.6-0.1,0.9-0.3
		c0.3-0.2,0.6-0.4,0.8-0.7c2.4-3,5.7-4.1,10.5-5c6.5-1.1,12.8-5.2,17-11.1c4.3-5.9,6.2-13.1,5.2-19.6c-0.7-4.7-2.2-9.3-3.7-13.6
		C66,23.3,66.2,22.1,70.1,18.4z"/>
	<path fill="#FE7C01" d="M17.9,24.3L17.9,24.3c0,0.1-0.7,5.8,1.8,7.9c0.1,0.1,3.2,2.6,3.8,6l0,0c0,0,0.3,2.1,2.1,3.3l3.4,2.1
		c0,0,0.7,0.4,1.5,0.6c0.6,0.1,1,0,1.4-0.3c0.5-0.4,0.8-1.3,0.9-2.7c0-0.3,0.1-1.6,0.4-2.5c0.2-0.6,0.5-1,0.5-1.1l2.5-4.2
		c0.2-0.4,0.4-0.8,0.5-1.1c0.1-0.4,0.2-0.8,0.2-1.2c0-0.4-0.1-0.8-0.2-1.2c-0.1-0.2-0.1-0.4-0.2-0.6c0-0.1-0.1-0.2-0.1-0.3
		c0,0,0-0.1-0.1-0.1l-0.1-0.2l-1.8-3.8c0-0.1-0.1-0.1-0.1-0.2c0-0.1-0.1-0.2-0.1-0.2c0-0.1-0.1-0.1-0.1-0.2l0,0
		c0-0.1-0.1-0.1-0.1-0.2l0,0c-0.1-0.2-0.1-0.3-0.2-0.5c-0.1-0.2-0.1-0.3-0.2-0.5c-0.1-0.3-0.2-0.7-0.3-1.1c0-0.2-0.1-0.4-0.1-0.5
		c0-0.1,0-0.3-0.1-0.5l0.3,0c0,0.2,0.1,0.4,0.1,0.5c0,0.2,0.1,0.3,0.1,0.5c0.1,0.3,0.2,0.7,0.3,1c0.1,0.2,0.1,0.3,0.2,0.5
		c0.1,0.2,0.1,0.3,0.2,0.5l0,0c0,0.1,0.1,0.1,0.1,0.2c0,0.1,0.1,0.2,0.1,0.2c0,0.1,0.1,0.1,0.1,0.2c0,0.1,0.1,0.1,0.1,0.1l0.1,0.1
		l1.9,3.6c0,0,0,0,0,0.1l0.1,0.1c0,0.1,0.1,0.1,0.1,0.2c0.1,0.1,0.1,0.2,0.2,0.3c0.1,0.2,0.2,0.5,0.3,0.7c0.2,0.5,0.3,1,0.3,1.5
		c0,0.2,0,0.4,0,0.7l-0.1,1c-0.1,0.4-0.2,0.9-0.4,1.3L37,34.5l-2.1,4c0.3,0.2,0.7,0.5,1,0.8c0.3,0.2,0.9,0.4,1.4,0.6
		c0.5,0.1,0.9,0.3,1.4,0.5c0.9,0.3,1.4,0.4,1.9,0.6l0.1,0.1c0,0.1,0.1,0.1,0.1,0.2l0.3,0.4l0.1,0.2c0.1,0.1,0.2,0.3,0.3,0.5
		c0.1,0.1,0.1,0.2,0.2,0.3l0.1,0.2c0.1,0.2,0.2,0.3,0.4,0.5l0,0c0.2,0.3,0.5,0.8,0.8,0.8c0.1,0,0.3-0.1,0.5-0.4c0,0,0.3-0.3,0.5-0.6
		c-0.1-0.1-0.2-0.2-0.3-0.4c-0.2-0.3-0.4-0.6-0.5-0.9c0-0.1,0-0.2-0.1-0.3c0,0,0-0.1,0-0.1h0l0-0.1c0,0,0,0,0,0l0-0.2l0,0l0-0.4
		c0-0.1,0-0.3,0-0.4l0-0.4c0-0.2,0-0.5-0.1-0.8c0-0.1-0.1-0.3-0.1-0.4c0-0.1,0-0.1-0.1-0.2l-0.1-0.2c-0.1-0.1-0.1-0.2-0.2-0.3
		c-0.1-0.1-0.1-0.2-0.2-0.4c0-0.1-0.1-0.1-0.1-0.2l0-0.1c0,0,0-0.1-0.1-0.1l-0.1-0.1c0-0.1-0.1-0.2-0.1-0.3l-0.3-0.7l0.5,0.5
		c0.1,0.1,0.1,0.1,0.2,0.2l0.1,0.1c0,0,0.1,0.1,0.1,0.1l0,0.1c0,0.1,0.1,0.1,0.1,0.2c0.1,0.1,0.2,0.2,0.3,0.3
		c0.1,0.1,0.2,0.2,0.2,0.3l0,0c0,0,0,0.1,0.1,0.1c0,0,0,0.1,0.1,0.1c0,0.1,0.1,0.1,0.1,0.2c0.1,0.1,0.1,0.3,0.2,0.4
		c0.1,0.3,0.2,0.6,0.2,0.9l0.1,0.4c0,0.1,0,0.3,0,0.4l0.1,0.5c0,0,0,0,0,0c0,0,0,0,0,0.1c0,0,0,0.1,0,0.1c0.1,0.2,0.2,0.4,0.3,0.6
		c0.2,0.2,0.3,0.3,0.5,0.5c0.2,0.1,0.4,0.3,0.6,0.4c0.1,0.1,0.3,0.1,0.4,0.2c0.1,0.1,0.3,0.1,0.4,0.2c0.3,0.1,0.5,0.3,0.8,0.4
		c0.2,0.1,0.5,0.3,0.8,0.4c0.2,0.1,0.4,0.3,0.7,0.5c0.2,0.1,0.4,0.3,0.7,0.5c0.2,0.2,0.5,0.4,0.7,0.6c0.2,0.2,0.4,0.4,0.6,0.6
		c0.2,0.3,0.4,0.5,0.5,0.7c0.2,0.3,0.3,0.6,0.3,0.9l0.1,1l-0.4-0.9c-0.1-0.2-0.2-0.4-0.4-0.7c-0.1-0.1-0.2-0.2-0.3-0.3
		c-0.1-0.1-0.2-0.2-0.3-0.3c-0.2-0.2-0.4-0.3-0.7-0.5c-0.1-0.1-0.3-0.2-0.4-0.3c0.1,0.1,0.1,0.3,0.2,0.5c0.1,0.2,0.2,0.4,0.4,0.7
		c0,0.1,0.1,0.2,0.1,0.2l0.2,0.2c0.1,0.1,0.1,0.2,0.2,0.2l0.3,0.4c0.1,0.1,0.1,0.2,0.2,0.3l0.1,0.1c0.1,0.1,0.2,0.2,0.3,0.3l0.2,0.2
		c0.1,0.1,0.1,0.1,0.2,0.2l0.1,0.1c0.1,0.1,0.2,0.2,0.2,0.2l0.2,0.2c0,0,0.1,0.1,0.1,0.1l0.5,0.4c0,0,0.1,0.1,0.1,0.1l0.7,0.5
		c0,0,0.1,0,0.1,0.1l0.7,0.4c0.1,0,0.1,0.1,0.2,0.1l0.1,0.1c0.1,0.1,0.2,0.1,0.3,0.1l0.1,0.1c0.2-0.7,0.5-1.8,0.7-3.2l-0.1-2.4
		L55.3,44l-0.4-1.6c-0.3-1.1-0.7-2.2-1.1-3.2l-0.6-1.3c-0.2-0.4-0.4-0.7-0.6-1.1c-0.2-0.4-1.7-3.3-1.5-4.8c0,0,0.2-2.3-0.7-3.7
		c-1.3-2-2.4-5-2.8-5.9l0-0.1l0-0.1c0-0.1-0.5-2.4-4.4-3c-0.9-0.2-2-0.2-3.1-0.1l-0.1,0l0,0c-0.1,0-1.8-0.1-3.1-0.7
		c-1.3-0.3-2.3-0.7-3.2-1.1c-0.2-0.1-1.8-0.7-3.2-0.9c-0.4-0.1-0.8-0.1-1.1-0.1h0c-1.7-0.1-6.5,0.1-7.8,1.7
		C20.6,19.2,17.9,22.6,17.9,24.3z M43.1,30.1c2.2-0.2,3,0.8,3,0.8l1.1,1.2l-0.1,0.1c-0.5,0.4-0.9,0.5-1.2,0.5c-0.1,0-0.2,0-0.3,0
		c-0.4-0.1-0.7-0.4-0.9-0.7c-0.3-0.7-1.6-1.5-1.6-1.5l-0.3-0.2L43.1,30.1z"/>
	<path fill="#FE7C01" d="M56.9,55.1c0.9,0.1,1.7,0.2,2.4,0.2c1,0.1,2-0.3,2-0.3c0,0,0.1,0,0.1,0c-0.3,0-0.7-0.1-1.3-0.2
		c-1.5-0.2-3.5-0.7-5.2-1.5l-0.1-0.1c-0.1,0-0.2-0.1-0.3-0.1c0,0-0.1,0-0.1-0.1c0,0,0,0-0.1,0l0,0l0,0c0,0,0,0,0,0
		c-0.1,0-0.2-0.1-0.3-0.1c-0.1,0-0.2-0.1-0.3-0.2c-0.1-0.1-0.2-0.1-0.3-0.2c-0.1-0.1-0.2-0.1-0.3-0.2c0,0-0.1,0-0.1-0.1
		c0,0-0.1,0-0.1-0.1c-0.1,0-0.1-0.1-0.2-0.1c-0.1,0-0.1-0.1-0.2-0.1c-0.1,0-0.1-0.1-0.2-0.1s-0.1-0.1-0.2-0.1
		c-0.1-0.1-0.1-0.1-0.2-0.2c-0.1-0.1-0.1-0.1-0.2-0.2c-0.1-0.1-0.1-0.1-0.2-0.2c-0.1-0.1-0.1-0.1-0.2-0.2c-0.1-0.1-0.1-0.1-0.2-0.2
		s-0.1-0.1-0.2-0.2c-0.1-0.1-0.1-0.1-0.2-0.2c-0.1-0.1-0.2-0.3-0.3-0.4c-0.1-0.1-0.1-0.1-0.2-0.2s-0.1-0.1-0.2-0.2
		c-0.1-0.1-0.2-0.3-0.3-0.4c-0.1-0.1-0.2-0.3-0.3-0.4c0-0.1-0.1-0.1-0.1-0.2c0-0.1-0.1-0.1-0.1-0.2c-0.1-0.1-0.2-0.3-0.2-0.4
		c-0.1-0.1-0.1-0.3-0.2-0.4c-0.1-0.3-0.2-0.5-0.3-0.7c-0.1-0.2-0.2-0.4-0.2-0.6c-0.1-0.2-0.1-0.4-0.2-0.5c0-0.1-0.1-0.3-0.1-0.3
		c0,0,0,0,0,0c-0.2-0.1-0.5-0.3-0.7-0.4c-0.2-0.1-0.5-0.3-0.7-0.4c-0.1,0-0.1-0.1-0.2-0.1l-0.9-0.4l0,0l-0.3-0.1
		c0.1,0.4,0.2,1.3,0.7,2.4c0.6,1.5,1.7,3.6,3.9,5.5l0,0c0.1,0.1,1.9,1.6,4.3,2.6C54.4,54.6,55.6,54.9,56.9,55.1z"/>
	<path fill="#FE7C01" d="M37,49.3L37,49.3L37,49.3c0.1,0,0.4,0,0.7,0c0.4,0.1,1.1,0.3,1.7,0.8l0.1,0.1c0,0,0.1,0.1,0.4,0.2
		c0.1,0,0.2,0,0.3,0c0.1,0,0.3,0,0.6,0c0.3,0,0.7,0.2,1.1,0.5c-0.4-0.8-1.4-2.5-2.9-3.4c-0.1,0-0.8-0.4-1.7-0.6
		c-1.4-0.2-2.3,0.2-3,1.3c0,0-0.5,0.8-0.6,2.1c-0.1,1.7,0.4,3.3,1.5,5c0.1,0.2,2.6,3.2,6.8,3.9c2,0.3,4.2,0.1,6.3-0.7l0,0
		c0,0,2.5-0.9,4.5-3.4c-0.6-0.3-1.2-0.6-1.7-0.9l-0.8-0.5c-0.3-0.2-0.5-0.4-0.8-0.5c-0.3,0.5-0.9,1.1-1.7,1.8
		c-1.8,1.5-4,2.1-6.3,1.7c-0.6-0.1-1.1-0.2-1.7-0.4l0,0c-0.1-0.1-3.2-1.3-4.1-4.5l0,0c0-0.2-0.2-1,0.2-1.6
		C36.3,49.6,36.6,49.4,37,49.3z"/>
</g>
</svg>
