<svg version="1.1" id="layer" xmlns="http://www.w3.org/2000/svg" xmlns:xlink="http://www.w3.org/1999/xlink" x="0px" y="0px" viewBox="0 0 652 237" style="enable-background:new 0 0 652 237;" xml:space="preserve">
                        <style type="text/css">
                            .st0{fill-rule:evenodd;clip-rule:evenodd;}
                        </style>
                        <polygon class="st0" points="60.7,31.9 83.6,31.9 83.6,92.3 155.3,31.9 170.2,31.9 102.2,89.2 188.6,168.2 159.4,168.2 83.6,99.1 &#10;                        83.6,168.2 60.7,168.2 "/>
                        <path class="st0" d="M240.3,33.9l45.8,99.6h-16.7l-14.9-32.5h-41.7l-15.3,32.5h-8.3l46.9-99.6H240.3z M215.7,94.7h35.9l-17.8-38.6&#10;                            L215.7,94.7z"/>
                        <polygon class="st0" points="367.6,36.1 367.6,42.4 316.1,42.4 316.1,77.2 350.6,77.2 350.6,83.5 316.1,83.5 316.1,127.2 &#10;                            367.6,127.2 367.6,133.5 299.7,133.5 299.7,36.1 "/>
                        <path class="st0" d="M386.8,36.1h33.8c5.9,0,11,0.5,15.3,1.9c4.4,1.3,8.1,3.1,11.1,5.3c3,2.2,5.2,4.9,6.7,8.1&#10;                            c1.4,3.1,2.3,6.4,2.3,10.2c0,2.9-0.7,5.9-1.8,8.5c-1.2,2.6-2.9,5.1-4.9,7.2c-2.1,2.1-4.5,3.8-7.5,5.4c-2.9,1.5-6.2,2.8-9.8,3.7&#10;                            l35.6,47.2h-19.1l-33.9-45.8h-11.4v45.8h-16.4V36.1z M403.2,82.8h9.5c3.7,0,7-0.3,10.1-1.4c3.1-1,5.8-2.4,8-4.1&#10;                            c2.5-1.9,4.2-4,5.3-6.7c1.3-2.4,2-5.3,2-8.5c0-3-0.4-5.6-1.4-8.2c-1.1-2.3-2.6-4.5-4.3-6.2c-1.9-1.6-4-3.1-6.6-4&#10;                            c-2.5-1.1-5.3-1.4-8.3-1.4h-14.4V82.8z"/>
                        <path class="st0" d="M539.5,28.8l64.2,139.4h-23.5l-20.8-45.4H501l-21.4,45.4H468l65.7-139.4H539.5z M505,114.1h50.4L530.6,60&#10;                            L505,114.1z"/>

                        <path d="M238.9,206c-3.1,4.7-9.4,8.5-17,8.5c-13.7,0-24-10.2-24-24.2s10.3-24.2,24-24.2c5.7,0,11.9,2.1,15.9,7.3l-4.1,3.1&#10;                            c-1.8-3-7-6-11.8-6c-11.8,0-18.9,9.3-18.9,19.9s7.1,19.9,18.9,19.9c4.8,0,9.8-1.6,13.2-6.9L238.9,206z"/>
                        <path d="M259.7,214c-9.4,0-16.1-6.8-16.1-16c0-9.2,6.7-16,16.1-16c9.5,0,16.2,6.8,16.2,16C275.9,207.2,269.2,214,259.7,214z&#10;                            M259.7,185.9c-7,0-11.4,5.3-11.4,12.1s4.4,12.1,11.4,12.1c7.1,0,11.5-5.3,11.5-12.1S266.8,185.9,259.7,185.9z"/>
                        <path d="M299.8,190c-1.3-2.5-3.4-4.1-6.6-4.1c-3,0-6.3,1.3-6.3,4.5c0,2.9,2,3.9,6,4.8l4.4,1c4.2,1,7.4,4,7.4,8.3&#10;                            c0,6.6-5.9,9.4-11.8,9.4c-4.6,0-8.8-1.6-11.7-5.9l3.7-2.5c1.8,2.7,4.4,4.5,8,4.5c3.5,0,7.1-1.6,7.1-5.1c0-3.1-2.6-4.1-5.8-4.9&#10;                            l-4.2-1c-2.1-0.5-7.8-2.2-7.8-8c0-6.3,5.5-9.2,11.2-9.2c4.2,0,8.2,1.5,10.1,5.5L299.8,190z"/>
                        <path d="M311.4,189.6c0-2.3-0.2-4.5-0.3-6.8h4.6v4.6h0.1c2.1-3.5,6.2-5.4,9.8-5.4c3.3,0,7.7,1.1,9.7,6.3c1.8-3.9,5.9-6.3,10-6.3&#10;                            c7.7,0,11.4,4.4,11.4,11.9v19.3h-4.3v-17.7c0-6.2-1.8-9.6-7.7-9.6c-6.4,0-8.6,5.5-8.6,11.1v16.2h-4.3v-17.7c0-6.2-1.8-9.6-7.7-9.6&#10;                            c-1,0-8.6,0.6-8.6,11.7v15.6h-4.3V189.6z"/>
                        <path d="M369.8,199.2c0.5,6.1,5.1,10.9,11.2,10.9c4.5,0,8.1-2.5,9.8-5.3l3.3,2.7c-3.6,4.6-8.1,6.4-13.1,6.4c-9,0-15.7-6.8-15.7-16&#10;                            c0-9.2,6.7-16,15.3-16c9.2,0.1,14.6,6.9,14.6,15.2v2H369.8z M390.4,195.7c0-5.8-3.7-9.8-9.9-9.8c-5.6,0-10.7,4.7-10.7,9.8H390.4z"/>
                        <path d="M418.6,186.7h-8.8v17.9c0,4.5,1.8,5.5,4.4,5.5c1.5,0,3.1-0.5,4.4-1.2l0.2,4c-1.6,0.7-3.6,1.1-5.8,1.1&#10;                            c-3.3,0-7.5-1.4-7.5-8.1v-19.2h-6.4v-3.9h6.4v-8.6h4.3v8.6h8.8V186.7z"/>
                        <path d="M427.6,174.2c-1.6,0-3.1-1.3-3.1-3.1c0-1.8,1.6-3.1,3.1-3.1c1.6,0,3.1,1.3,3.1,3.1C430.7,172.9,429.2,174.2,427.6,174.2z&#10;                            M429.8,213.2h-4.3v-30.4h4.3V213.2z"/>
                        <path d="M462.3,190c-1.4-2.2-4.2-4-7.6-4c-7.1-0.1-11.4,5.1-11.4,12.1c0,7,4.4,12.2,11.4,12.1c3.4,0,6.2-1.8,7.6-4l3.5,2.7&#10;                            c-3,3.5-7,5.2-11.1,5.3c-9.9,0.1-16.1-6.8-16.1-16c0-9.2,6.2-16.1,16.1-16c4.1,0.1,8.1,1.8,11.1,5.3L462.3,190z"/>
                    </svg>